<?xml version="1.0" encoding="UTF-8"?>
<svg xmlns="http://www.w3.org/2000/svg" xmlns:xlink="http://www.w3.org/1999/xlink" width="1920" height="1080" viewBox="0 0 1920 1080">
<defs>
<g>
<g id="glyph-0-0">
<path d="M 0.105469 -0.148438 C 0.265625 -0.152344 0.378906 -0.175781 0.445312 -0.210938 C 0.5625 -0.273438 0.621094 -0.386719 0.621094 -0.558594 L 0.621094 -3.378906 C 0.621094 -3.550781 0.566406 -3.667969 0.457031 -3.726562 C 0.390625 -3.761719 0.273438 -3.785156 0.105469 -3.792969 L 0.105469 -3.941406 L 2.144531 -3.941406 L 2.144531 -3.792969 C 1.90625 -3.785156 1.75 -3.753906 1.671875 -3.695312 C 1.59375 -3.636719 1.550781 -3.488281 1.550781 -3.257812 L 1.550781 -0.503906 C 1.550781 -0.375 1.585938 -0.289062 1.652344 -0.246094 C 1.71875 -0.207031 1.851562 -0.183594 2.046875 -0.183594 C 2.398438 -0.183594 2.695312 -0.261719 2.933594 -0.417969 C 3.171875 -0.570312 3.375 -0.875 3.546875 -1.320312 L 3.71875 -1.320312 L 3.484375 0 L 0.105469 0 Z "/>
</g>
</g>
</defs>
<g fill="rgb(100%, 100%, 100%)" fill-opacity="1">
<use xlink:href="#glyph-0-0" x="30" y="24.375"/>
</g>
</svg>
