<?xml version="1.0" encoding="UTF-8"?>
<svg xmlns="http://www.w3.org/2000/svg" xmlns:xlink="http://www.w3.org/1999/xlink" width="1920" height="1080" viewBox="0 0 1920 1080">
<defs>
<g>
<g id="glyph-0-0">
<path d="M 2.253906 -4.015625 C 2.5 -4.015625 2.746094 -3.972656 2.992188 -3.878906 C 3.242188 -3.789062 3.378906 -3.746094 3.410156 -3.746094 C 3.484375 -3.746094 3.542969 -3.773438 3.585938 -3.832031 C 3.632812 -3.886719 3.660156 -3.949219 3.671875 -4.011719 L 3.832031 -4.011719 L 3.832031 -2.644531 L 3.683594 -2.644531 C 3.542969 -2.941406 3.402344 -3.175781 3.253906 -3.347656 C 2.980469 -3.664062 2.671875 -3.820312 2.328125 -3.820312 C 1.9375 -3.820312 1.65625 -3.652344 1.492188 -3.3125 C 1.328125 -2.976562 1.246094 -2.523438 1.246094 -1.957031 C 1.246094 -1.539062 1.296875 -1.195312 1.394531 -0.925781 C 1.574219 -0.421875 1.910156 -0.167969 2.398438 -0.167969 C 2.699219 -0.167969 2.976562 -0.25 3.234375 -0.417969 C 3.382812 -0.515625 3.558594 -0.671875 3.757812 -0.882812 L 3.933594 -0.742188 C 3.707031 -0.488281 3.503906 -0.300781 3.332031 -0.1875 C 3.023438 0.015625 2.683594 0.117188 2.308594 0.117188 C 1.730469 0.117188 1.25 -0.0546875 0.859375 -0.394531 C 0.429688 -0.773438 0.214844 -1.28125 0.214844 -1.921875 C 0.214844 -2.554688 0.417969 -3.070312 0.832031 -3.464844 C 1.21875 -3.832031 1.695312 -4.015625 2.253906 -4.015625 Z "/>
</g>
</g>
</defs>
<g fill="rgb(100%, 100%, 100%)" fill-opacity="1">
<use xlink:href="#glyph-0-0" x="30" y="24.375"/>
</g>
</svg>
