<?xml version="1.0" encoding="UTF-8"?>
<svg xmlns="http://www.w3.org/2000/svg" xmlns:xlink="http://www.w3.org/1999/xlink" width="1920" height="1080" viewBox="0 0 1920 1080">
<defs>
<g>
<g id="glyph-0-0">
<path d="M 1.707031 -0.242188 C 1.917969 -0.242188 2.058594 -0.382812 2.132812 -0.660156 C 2.171875 -0.8125 2.191406 -1.035156 2.191406 -1.324219 C 2.191406 -1.660156 2.164062 -1.925781 2.101562 -2.125 C 2.042969 -2.324219 1.917969 -2.421875 1.730469 -2.421875 C 1.605469 -2.421875 1.496094 -2.367188 1.394531 -2.253906 C 1.296875 -2.144531 1.246094 -2.066406 1.246094 -2.015625 L 1.246094 -0.597656 C 1.246094 -0.539062 1.292969 -0.46875 1.386719 -0.378906 C 1.480469 -0.289062 1.589844 -0.242188 1.707031 -0.242188 Z M 0.105469 1.0625 C 0.230469 1.050781 0.316406 1.019531 0.363281 0.976562 C 0.40625 0.929688 0.429688 0.847656 0.429688 0.722656 L 0.429688 -2.207031 C 0.429688 -2.328125 0.410156 -2.410156 0.367188 -2.453125 C 0.324219 -2.496094 0.242188 -2.527344 0.121094 -2.542969 L 0.121094 -2.6875 L 1.234375 -2.6875 L 1.234375 -2.300781 C 1.3125 -2.433594 1.390625 -2.53125 1.464844 -2.59375 C 1.601562 -2.703125 1.777344 -2.761719 1.992188 -2.761719 C 2.296875 -2.761719 2.550781 -2.644531 2.753906 -2.414062 C 2.957031 -2.183594 3.054688 -1.84375 3.054688 -1.386719 C 3.054688 -0.964844 2.949219 -0.613281 2.730469 -0.335938 C 2.511719 -0.0585938 2.25 0.0820312 1.9375 0.0820312 C 1.777344 0.0820312 1.625 0.0351562 1.484375 -0.0585938 C 1.40625 -0.105469 1.328125 -0.175781 1.246094 -0.269531 L 1.246094 0.226562 C 1.25 0.488281 1.25 0.632812 1.253906 0.667969 C 1.265625 0.820312 1.304688 0.925781 1.371094 0.984375 C 1.4375 1.039062 1.546875 1.074219 1.699219 1.082031 L 1.699219 1.203125 L 0.105469 1.203125 Z "/>
</g>
</g>
</defs>
<g fill="rgb(100%, 100%, 100%)" fill-opacity="1">
<use xlink:href="#glyph-0-0" x="30" y="24.375"/>
</g>
</svg>
