<?xml version="1.0" encoding="UTF-8"?>
<svg xmlns="http://www.w3.org/2000/svg" xmlns:xlink="http://www.w3.org/1999/xlink" width="1920" height="1080" viewBox="0 0 1920 1080">
<defs>
<g>
<g id="glyph-0-0">
<path d="M 1.277344 -0.332031 C 1.375 -0.332031 1.460938 -0.363281 1.542969 -0.417969 C 1.589844 -0.453125 1.644531 -0.507812 1.707031 -0.578125 L 1.707031 -1.429688 C 1.550781 -1.390625 1.414062 -1.332031 1.296875 -1.25 C 1.097656 -1.113281 0.996094 -0.933594 0.996094 -0.71875 C 0.996094 -0.59375 1.027344 -0.496094 1.082031 -0.429688 C 1.140625 -0.367188 1.207031 -0.332031 1.277344 -0.332031 Z M 0.148438 -0.542969 C 0.148438 -0.804688 0.273438 -1.015625 0.527344 -1.167969 C 0.78125 -1.320312 1.175781 -1.476562 1.714844 -1.632812 L 1.714844 -2.054688 C 1.714844 -2.230469 1.679688 -2.355469 1.605469 -2.4375 C 1.53125 -2.519531 1.402344 -2.5625 1.214844 -2.5625 C 1.109375 -2.5625 1.027344 -2.542969 0.957031 -2.503906 C 0.890625 -2.464844 0.855469 -2.417969 0.855469 -2.359375 C 0.855469 -2.335938 0.859375 -2.316406 0.867188 -2.300781 C 0.875 -2.285156 0.886719 -2.269531 0.902344 -2.253906 L 0.9375 -2.214844 C 0.964844 -2.179688 0.984375 -2.144531 1 -2.105469 C 1.015625 -2.066406 1.023438 -2.027344 1.023438 -1.980469 C 1.023438 -1.871094 0.988281 -1.789062 0.914062 -1.726562 C 0.84375 -1.667969 0.757812 -1.636719 0.660156 -1.636719 C 0.546875 -1.636719 0.453125 -1.671875 0.375 -1.738281 C 0.296875 -1.804688 0.257812 -1.898438 0.257812 -2.023438 C 0.257812 -2.25 0.363281 -2.425781 0.574219 -2.558594 C 0.785156 -2.6875 1.042969 -2.753906 1.351562 -2.753906 C 1.679688 -2.753906 1.957031 -2.691406 2.179688 -2.5625 C 2.398438 -2.433594 2.507812 -2.195312 2.507812 -1.851562 L 2.507812 -0.4375 C 2.507812 -0.394531 2.519531 -0.359375 2.542969 -0.332031 C 2.5625 -0.300781 2.589844 -0.289062 2.613281 -0.289062 C 2.636719 -0.289062 2.65625 -0.292969 2.675781 -0.300781 C 2.695312 -0.308594 2.722656 -0.332031 2.761719 -0.371094 L 2.847656 -0.246094 C 2.734375 -0.113281 2.609375 -0.0234375 2.46875 0.03125 C 2.382812 0.0664062 2.289062 0.0820312 2.191406 0.0820312 C 2.019531 0.0820312 1.894531 0.03125 1.8125 -0.0664062 C 1.769531 -0.125 1.734375 -0.210938 1.714844 -0.320312 C 1.554688 -0.160156 1.371094 -0.046875 1.167969 0.0195312 C 1.042969 0.0625 0.921875 0.0820312 0.804688 0.0820312 C 0.644531 0.0820312 0.496094 0.03125 0.355469 -0.0703125 C 0.21875 -0.171875 0.148438 -0.328125 0.148438 -0.542969 Z "/>
</g>
</g>
</defs>
<g fill="rgb(100%, 100%, 100%)" fill-opacity="1">
<use xlink:href="#glyph-0-0" x="30" y="24.375"/>
</g>
</svg>
